<svg width="123" height="75" viewBox="0 0 123 75" fill="none" xmlns="http://www.w3.org/2000/svg">
<path d="M10.3991 30.2784C8.4524 30.2784 6.6924 29.9451 5.11906 29.2784C3.5724 28.6118 2.34573 27.6518 1.43906 26.3984C0.532396 25.1451 0.0657291 23.6651 0.0390625 21.9584H6.03906C6.11906 23.1051 6.51906 24.0118 7.23906 24.6784C7.98573 25.3451 8.99906 25.6784 10.2791 25.6784C11.5857 25.6784 12.6124 25.3718 13.3591 24.7584C14.1057 24.1184 14.4791 23.2918 14.4791 22.2784C14.4791 21.4518 14.2257 20.7718 13.7191 20.2384C13.2124 19.7051 12.5724 19.2918 11.7991 18.9984C11.0524 18.6784 10.0124 18.3318 8.67906 17.9584C6.86573 17.4251 5.38573 16.9051 4.23906 16.3984C3.11906 15.8651 2.14573 15.0784 1.31906 14.0384C0.519063 12.9718 0.119063 11.5584 0.119063 9.79844C0.119063 8.1451 0.532396 6.7051 1.35906 5.47844C2.18573 4.25177 3.34573 3.31844 4.83906 2.67844C6.3324 2.01177 8.03906 1.67844 9.95906 1.67844C12.8391 1.67844 15.1724 2.3851 16.9591 3.79844C18.7724 5.1851 19.7724 7.13177 19.9591 9.63844H13.7991C13.7457 8.67844 13.3324 7.89177 12.5591 7.27844C11.8124 6.63844 10.8124 6.31844 9.55906 6.31844C8.46573 6.31844 7.58573 6.59844 6.91906 7.15844C6.27906 7.71844 5.95906 8.53177 5.95906 9.59844C5.95906 10.3451 6.19906 10.9718 6.67906 11.4784C7.18573 11.9584 7.79906 12.3584 8.51906 12.6784C9.26573 12.9718 10.3057 13.3184 11.6391 13.7184C13.4524 14.2518 14.9324 14.7851 16.0791 15.3184C17.2257 15.8518 18.2124 16.6518 19.0391 17.7184C19.8657 18.7851 20.2791 20.1851 20.2791 21.9184C20.2791 23.4118 19.8924 24.7984 19.1191 26.0784C18.3457 27.3584 17.2124 28.3851 15.7191 29.1584C14.2257 29.9051 12.4524 30.2784 10.3991 30.2784Z" fill="black"/>
<path d="M43.3341 18.4384C43.3341 19.2384 43.2807 19.9584 43.1741 20.5984H26.9741C27.1074 22.1984 27.6674 23.4518 28.6541 24.3584C29.6407 25.2651 30.8541 25.7184 32.2941 25.7184C34.3741 25.7184 35.8541 24.8251 36.7341 23.0384H42.7741C42.1341 25.1718 40.9074 26.9318 39.0941 28.3184C37.2807 29.6784 35.0541 30.3584 32.4141 30.3584C30.2807 30.3584 28.3607 29.8918 26.6541 28.9584C24.9741 27.9984 23.6541 26.6518 22.6941 24.9184C21.7607 23.1851 21.2941 21.1851 21.2941 18.9184C21.2941 16.6251 21.7607 14.6118 22.6941 12.8784C23.6274 11.1451 24.9341 9.81177 26.6141 8.87844C28.2941 7.9451 30.2274 7.47844 32.4141 7.47844C34.5207 7.47844 36.4007 7.93177 38.0541 8.83844C39.7341 9.7451 41.0274 11.0384 41.9341 12.7184C42.8674 14.3718 43.3341 16.2784 43.3341 18.4384ZM37.5341 16.8384C37.5074 15.3984 36.9874 14.2518 35.9741 13.3984C34.9607 12.5184 33.7207 12.0784 32.2541 12.0784C30.8674 12.0784 29.6941 12.5051 28.7341 13.3584C27.8007 14.1851 27.2274 15.3451 27.0141 16.8384H37.5341Z" fill="black"/>
<path d="M65.6216 18.4384C65.6216 19.2384 65.5682 19.9584 65.4616 20.5984H49.2616C49.3949 22.1984 49.9549 23.4518 50.9416 24.3584C51.9282 25.2651 53.1416 25.7184 54.5816 25.7184C56.6616 25.7184 58.1416 24.8251 59.0216 23.0384H65.0616C64.4216 25.1718 63.1949 26.9318 61.3816 28.3184C59.5682 29.6784 57.3416 30.3584 54.7016 30.3584C52.5682 30.3584 50.6482 29.8918 48.9416 28.9584C47.2616 27.9984 45.9416 26.6518 44.9816 24.9184C44.0482 23.1851 43.5816 21.1851 43.5816 18.9184C43.5816 16.6251 44.0482 14.6118 44.9816 12.8784C45.9149 11.1451 47.2216 9.81177 48.9016 8.87844C50.5816 7.9451 52.5149 7.47844 54.7016 7.47844C56.8082 7.47844 58.6882 7.93177 60.3416 8.83844C62.0216 9.7451 63.3149 11.0384 64.2216 12.7184C65.1549 14.3718 65.6216 16.2784 65.6216 18.4384ZM59.8216 16.8384C59.7949 15.3984 59.2749 14.2518 58.2616 13.3984C57.2482 12.5184 56.0082 12.0784 54.5416 12.0784C53.1549 12.0784 51.9816 12.5051 51.0216 13.3584C50.0882 14.1851 49.5149 15.3451 49.3016 16.8384H59.8216Z" fill="black"/>
<path d="M80.4291 29.9984L72.9091 20.5584V29.9984H67.3091V0.398438H72.9091V17.2384L80.3491 7.83844H87.6291L77.8691 18.9584L87.7091 29.9984H80.4291Z" fill="black"/>
<path d="M108.868 18.4384C108.868 19.2384 108.815 19.9584 108.708 20.5984H92.5084C92.6418 22.1984 93.2018 23.4518 94.1884 24.3584C95.1751 25.2651 96.3884 25.7184 97.8284 25.7184C99.9084 25.7184 101.388 24.8251 102.268 23.0384H108.308C107.668 25.1718 106.442 26.9318 104.628 28.3184C102.815 29.6784 100.588 30.3584 97.9484 30.3584C95.8151 30.3584 93.8951 29.8918 92.1884 28.9584C90.5084 27.9984 89.1884 26.6518 88.2284 24.9184C87.2951 23.1851 86.8284 21.1851 86.8284 18.9184C86.8284 16.6251 87.2951 14.6118 88.2284 12.8784C89.1618 11.1451 90.4684 9.81177 92.1484 8.87844C93.8284 7.9451 95.7618 7.47844 97.9484 7.47844C100.055 7.47844 101.935 7.93177 103.588 8.83844C105.268 9.7451 106.562 11.0384 107.468 12.7184C108.402 14.3718 108.868 16.2784 108.868 18.4384ZM103.068 16.8384C103.042 15.3984 102.522 14.2518 101.508 13.3984C100.495 12.5184 99.2551 12.0784 97.7884 12.0784C96.4018 12.0784 95.2284 12.5051 94.2684 13.3584C93.3351 14.1851 92.7618 15.3451 92.5484 16.8384H103.068Z" fill="black"/>
<path d="M116.156 11.2784C116.876 10.1051 117.809 9.1851 118.956 8.51844C120.129 7.85177 121.463 7.51844 122.956 7.51844V13.3984H121.476C119.716 13.3984 118.383 13.8118 117.476 14.6384C116.596 15.4651 116.156 16.9051 116.156 18.9584V29.9984H110.556V7.83844H116.156V11.2784Z" fill="black"/>
<path d="M10.3991 64.2784C8.4524 64.2784 6.6924 63.9451 5.11906 63.2784C3.5724 62.6118 2.34573 61.6518 1.43906 60.3984C0.532396 59.1451 0.0657291 57.6651 0.0390625 55.9584H6.03906C6.11906 57.1051 6.51906 58.0118 7.23906 58.6784C7.98573 59.3451 8.99906 59.6784 10.2791 59.6784C11.5857 59.6784 12.6124 59.3718 13.3591 58.7584C14.1057 58.1184 14.4791 57.2918 14.4791 56.2784C14.4791 55.4518 14.2257 54.7718 13.7191 54.2384C13.2124 53.7051 12.5724 53.2918 11.7991 52.9984C11.0524 52.6784 10.0124 52.3318 8.67906 51.9584C6.86573 51.4251 5.38573 50.9051 4.23906 50.3984C3.11906 49.8651 2.14573 49.0784 1.31906 48.0384C0.519063 46.9718 0.119063 45.5584 0.119063 43.7984C0.119063 42.1451 0.532396 40.7051 1.35906 39.4784C2.18573 38.2518 3.34573 37.3184 4.83906 36.6784C6.3324 36.0118 8.03906 35.6784 9.95906 35.6784C12.8391 35.6784 15.1724 36.3851 16.9591 37.7984C18.7724 39.1851 19.7724 41.1318 19.9591 43.6384H13.7991C13.7457 42.6784 13.3324 41.8918 12.5591 41.2784C11.8124 40.6384 10.8124 40.3184 9.55906 40.3184C8.46573 40.3184 7.58573 40.5984 6.91906 41.1584C6.27906 41.7184 5.95906 42.5318 5.95906 43.5984C5.95906 44.3451 6.19906 44.9718 6.67906 45.4784C7.18573 45.9584 7.79906 46.3584 8.51906 46.6784C9.26573 46.9718 10.3057 47.3184 11.6391 47.7184C13.4524 48.2518 14.9324 48.7851 16.0791 49.3184C17.2257 49.8518 18.2124 50.6518 19.0391 51.7184C19.8657 52.7851 20.2791 54.1851 20.2791 55.9184C20.2791 57.4118 19.8924 58.7984 19.1191 60.0784C18.3457 61.3584 17.2124 62.3851 15.7191 63.1584C14.2257 63.9051 12.4524 64.2784 10.3991 64.2784Z" fill="black"/>
<path d="M28.3341 45.0384C29.0541 44.0251 30.0407 43.1851 31.2941 42.5184C32.5741 41.8251 34.0274 41.4784 35.6541 41.4784C37.5474 41.4784 39.2541 41.9451 40.7741 42.8784C42.3207 43.8118 43.5341 45.1451 44.4141 46.8784C45.3207 48.5851 45.7741 50.5718 45.7741 52.8384C45.7741 55.1051 45.3207 57.1184 44.4141 58.8784C43.5341 60.6118 42.3207 61.9584 40.7741 62.9184C39.2541 63.8784 37.5474 64.3584 35.6541 64.3584C34.0274 64.3584 32.5874 64.0251 31.3341 63.3584C30.1074 62.6918 29.1074 61.8518 28.3341 60.8384V74.5584H22.7341V41.8384H28.3341V45.0384ZM40.0541 52.8384C40.0541 51.5051 39.7741 50.3584 39.2141 49.3984C38.6807 48.4118 37.9607 47.6651 37.0541 47.1584C36.1741 46.6518 35.2141 46.3984 34.1741 46.3984C33.1607 46.3984 32.2007 46.6651 31.2941 47.1984C30.4141 47.7051 29.6941 48.4518 29.1341 49.4384C28.6007 50.4251 28.3341 51.5851 28.3341 52.9184C28.3341 54.2518 28.6007 55.4118 29.1341 56.3984C29.6941 57.3851 30.4141 58.1451 31.2941 58.6784C32.2007 59.1851 33.1607 59.4384 34.1741 59.4384C35.2141 59.4384 36.1741 59.1718 37.0541 58.6384C37.9607 58.1051 38.6807 57.3451 39.2141 56.3584C39.7741 55.3718 40.0541 54.1984 40.0541 52.8384Z" fill="black"/>
<path d="M57.2834 64.3584C55.1501 64.3584 53.2301 63.8918 51.5234 62.9584C49.8168 61.9984 48.4701 60.6518 47.4834 58.9184C46.5234 57.1851 46.0434 55.1851 46.0434 52.9184C46.0434 50.6518 46.5368 48.6518 47.5234 46.9184C48.5368 45.1851 49.9101 43.8518 51.6434 42.9184C53.3768 41.9584 55.3101 41.4784 57.4434 41.4784C59.5768 41.4784 61.5101 41.9584 63.2434 42.9184C64.9768 43.8518 66.3368 45.1851 67.3234 46.9184C68.3368 48.6518 68.8434 50.6518 68.8434 52.9184C68.8434 55.1851 68.3234 57.1851 67.2834 58.9184C66.2701 60.6518 64.8834 61.9984 63.1234 62.9584C61.3901 63.8918 59.4434 64.3584 57.2834 64.3584ZM57.2834 59.4784C58.2968 59.4784 59.2434 59.2384 60.1234 58.7584C61.0301 58.2518 61.7501 57.5051 62.2834 56.5184C62.8168 55.5318 63.0834 54.3318 63.0834 52.9184C63.0834 50.8118 62.5234 49.1984 61.4034 48.0784C60.3101 46.9318 58.9634 46.3584 57.3634 46.3584C55.7634 46.3584 54.4168 46.9318 53.3234 48.0784C52.2568 49.1984 51.7234 50.8118 51.7234 52.9184C51.7234 55.0251 52.2434 56.6518 53.2834 57.7984C54.3501 58.9184 55.6834 59.4784 57.2834 59.4784Z" fill="black"/>
<path d="M77.0713 46.4384V57.1584C77.0713 57.9051 77.2446 58.4518 77.5913 58.7984C77.9646 59.1184 78.5779 59.2784 79.4313 59.2784H82.0312V63.9984H78.5113C73.7913 63.9984 71.4313 61.7051 71.4313 57.1184V46.4384H68.7913V41.8384H71.4313V36.3584H77.0713V41.8384H82.0312V46.4384H77.0713Z" fill="black"/>
</svg>
